<mxfile host="app.diagrams.net" agent="Mozilla/5.0 (X11; Linux x86_64; rv:139.0) Gecko/20100101 Firefox/139.0" version="27.1.6">
  <diagram name="Page-1" id="lc8M9zH_UI7jCw9BjQIj">
    <mxGraphModel dx="1650" dy="725" grid="0" gridSize="10" guides="1" tooltips="1" connect="1" arrows="1" fold="1" page="1" pageScale="1" pageWidth="850" pageHeight="1100" math="0" shadow="0">
      <root>
        <mxCell id="0" />
        <mxCell id="1" parent="0" />
        <mxCell id="imeKl7CBs8rkCJV9uNss-1" value="" style="shape=table;startSize=0;container=1;collapsible=0;childLayout=tableLayout;fontSize=16;" parent="1" vertex="1">
          <mxGeometry x="219" y="20" width="413" height="80" as="geometry" />
        </mxCell>
        <mxCell id="imeKl7CBs8rkCJV9uNss-2" value="" style="shape=tableRow;horizontal=0;startSize=0;swimlaneHead=0;swimlaneBody=0;strokeColor=inherit;top=0;left=0;bottom=0;right=0;collapsible=0;dropTarget=0;fillColor=none;points=[[0,0.5],[1,0.5]];portConstraint=eastwest;fontSize=16;" parent="imeKl7CBs8rkCJV9uNss-1" vertex="1">
          <mxGeometry width="413" height="40" as="geometry" />
        </mxCell>
        <mxCell id="imeKl7CBs8rkCJV9uNss-3" value="35" style="shape=partialRectangle;html=1;whiteSpace=wrap;connectable=0;strokeColor=inherit;overflow=hidden;fillColor=none;top=0;left=0;bottom=0;right=0;pointerEvents=1;fontSize=16;" parent="imeKl7CBs8rkCJV9uNss-2" vertex="1">
          <mxGeometry width="69" height="40" as="geometry">
            <mxRectangle width="69" height="40" as="alternateBounds" />
          </mxGeometry>
        </mxCell>
        <mxCell id="imeKl7CBs8rkCJV9uNss-4" value="22" style="shape=partialRectangle;html=1;whiteSpace=wrap;connectable=0;strokeColor=inherit;overflow=hidden;fillColor=none;top=0;left=0;bottom=0;right=0;pointerEvents=1;fontSize=16;" parent="imeKl7CBs8rkCJV9uNss-2" vertex="1">
          <mxGeometry x="69" width="68" height="40" as="geometry">
            <mxRectangle width="68" height="40" as="alternateBounds" />
          </mxGeometry>
        </mxCell>
        <mxCell id="imeKl7CBs8rkCJV9uNss-5" value="7" style="shape=partialRectangle;html=1;whiteSpace=wrap;connectable=0;strokeColor=inherit;overflow=hidden;fillColor=none;top=0;left=0;bottom=0;right=0;pointerEvents=1;fontSize=16;" parent="imeKl7CBs8rkCJV9uNss-2" vertex="1">
          <mxGeometry x="137" width="69" height="40" as="geometry">
            <mxRectangle width="69" height="40" as="alternateBounds" />
          </mxGeometry>
        </mxCell>
        <mxCell id="imeKl7CBs8rkCJV9uNss-6" value="1" style="shape=partialRectangle;html=1;whiteSpace=wrap;connectable=0;strokeColor=inherit;overflow=hidden;fillColor=none;top=0;left=0;bottom=0;right=0;pointerEvents=1;fontSize=16;" parent="imeKl7CBs8rkCJV9uNss-2" vertex="1">
          <mxGeometry x="206" width="69" height="40" as="geometry">
            <mxRectangle width="69" height="40" as="alternateBounds" />
          </mxGeometry>
        </mxCell>
        <mxCell id="imeKl7CBs8rkCJV9uNss-7" value="13" style="shape=partialRectangle;html=1;whiteSpace=wrap;connectable=0;strokeColor=inherit;overflow=hidden;fillColor=none;top=0;left=0;bottom=0;right=0;pointerEvents=1;fontSize=16;" parent="imeKl7CBs8rkCJV9uNss-2" vertex="1">
          <mxGeometry x="275" width="69" height="40" as="geometry">
            <mxRectangle width="69" height="40" as="alternateBounds" />
          </mxGeometry>
        </mxCell>
        <mxCell id="imeKl7CBs8rkCJV9uNss-8" value="2" style="shape=partialRectangle;html=1;whiteSpace=wrap;connectable=0;strokeColor=inherit;overflow=hidden;fillColor=none;top=0;left=0;bottom=0;right=0;pointerEvents=1;fontSize=16;" parent="imeKl7CBs8rkCJV9uNss-2" vertex="1">
          <mxGeometry x="344" width="69" height="40" as="geometry">
            <mxRectangle width="69" height="40" as="alternateBounds" />
          </mxGeometry>
        </mxCell>
        <mxCell id="imeKl7CBs8rkCJV9uNss-29" style="shape=tableRow;horizontal=0;startSize=0;swimlaneHead=0;swimlaneBody=0;strokeColor=inherit;top=0;left=0;bottom=0;right=0;collapsible=0;dropTarget=0;fillColor=none;points=[[0,0.5],[1,0.5]];portConstraint=eastwest;fontSize=16;" parent="imeKl7CBs8rkCJV9uNss-1" vertex="1">
          <mxGeometry y="40" width="413" height="40" as="geometry" />
        </mxCell>
        <mxCell id="imeKl7CBs8rkCJV9uNss-30" value="50" style="shape=partialRectangle;html=1;whiteSpace=wrap;connectable=0;strokeColor=inherit;overflow=hidden;fillColor=none;top=0;left=0;bottom=0;right=0;pointerEvents=1;fontSize=16;" parent="imeKl7CBs8rkCJV9uNss-29" vertex="1">
          <mxGeometry width="69" height="40" as="geometry">
            <mxRectangle width="69" height="40" as="alternateBounds" />
          </mxGeometry>
        </mxCell>
        <mxCell id="imeKl7CBs8rkCJV9uNss-31" value="90" style="shape=partialRectangle;html=1;whiteSpace=wrap;connectable=0;strokeColor=inherit;overflow=hidden;fillColor=none;top=0;left=0;bottom=0;right=0;pointerEvents=1;fontSize=16;" parent="imeKl7CBs8rkCJV9uNss-29" vertex="1">
          <mxGeometry x="69" width="68" height="40" as="geometry">
            <mxRectangle width="68" height="40" as="alternateBounds" />
          </mxGeometry>
        </mxCell>
        <mxCell id="imeKl7CBs8rkCJV9uNss-32" value="20" style="shape=partialRectangle;html=1;whiteSpace=wrap;connectable=0;strokeColor=inherit;overflow=hidden;fillColor=none;top=0;left=0;bottom=0;right=0;pointerEvents=1;fontSize=16;" parent="imeKl7CBs8rkCJV9uNss-29" vertex="1">
          <mxGeometry x="137" width="69" height="40" as="geometry">
            <mxRectangle width="69" height="40" as="alternateBounds" />
          </mxGeometry>
        </mxCell>
        <mxCell id="imeKl7CBs8rkCJV9uNss-33" value="30" style="shape=partialRectangle;html=1;whiteSpace=wrap;connectable=0;strokeColor=inherit;overflow=hidden;fillColor=none;top=0;left=0;bottom=0;right=0;pointerEvents=1;fontSize=16;" parent="imeKl7CBs8rkCJV9uNss-29" vertex="1">
          <mxGeometry x="206" width="69" height="40" as="geometry">
            <mxRectangle width="69" height="40" as="alternateBounds" />
          </mxGeometry>
        </mxCell>
        <mxCell id="imeKl7CBs8rkCJV9uNss-34" value="60" style="shape=partialRectangle;html=1;whiteSpace=wrap;connectable=0;strokeColor=inherit;overflow=hidden;fillColor=none;top=0;left=0;bottom=0;right=0;pointerEvents=1;fontSize=16;" parent="imeKl7CBs8rkCJV9uNss-29" vertex="1">
          <mxGeometry x="275" width="69" height="40" as="geometry">
            <mxRectangle width="69" height="40" as="alternateBounds" />
          </mxGeometry>
        </mxCell>
        <mxCell id="imeKl7CBs8rkCJV9uNss-35" value="10" style="shape=partialRectangle;html=1;whiteSpace=wrap;connectable=0;strokeColor=inherit;overflow=hidden;fillColor=none;top=0;left=0;bottom=0;right=0;pointerEvents=1;fontSize=16;" parent="imeKl7CBs8rkCJV9uNss-29" vertex="1">
          <mxGeometry x="344" width="69" height="40" as="geometry">
            <mxRectangle width="69" height="40" as="alternateBounds" />
          </mxGeometry>
        </mxCell>
        <mxCell id="imeKl7CBs8rkCJV9uNss-9" value="22" style="ellipse;whiteSpace=wrap;html=1;aspect=fixed;" parent="1" vertex="1">
          <mxGeometry x="415" y="183" width="40" height="40" as="geometry" />
        </mxCell>
        <mxCell id="imeKl7CBs8rkCJV9uNss-10" value="13" style="ellipse;whiteSpace=wrap;html=1;aspect=fixed;" parent="1" vertex="1">
          <mxGeometry x="336.5" y="263" width="40" height="40" as="geometry" />
        </mxCell>
        <mxCell id="imeKl7CBs8rkCJV9uNss-11" value="35" style="ellipse;whiteSpace=wrap;html=1;aspect=fixed;" parent="1" vertex="1">
          <mxGeometry x="495" y="263" width="40" height="40" as="geometry" />
        </mxCell>
        <mxCell id="imeKl7CBs8rkCJV9uNss-12" value="1" style="ellipse;whiteSpace=wrap;html=1;aspect=fixed;" parent="1" vertex="1">
          <mxGeometry x="296.5" y="343" width="40" height="40" as="geometry" />
        </mxCell>
        <mxCell id="imeKl7CBs8rkCJV9uNss-15" value="" style="curved=1;endArrow=classic;html=1;rounded=0;exitX=0;exitY=0.5;exitDx=0;exitDy=0;entryX=0.5;entryY=0;entryDx=0;entryDy=0;" parent="1" source="imeKl7CBs8rkCJV9uNss-9" target="imeKl7CBs8rkCJV9uNss-10" edge="1">
          <mxGeometry width="50" height="50" relative="1" as="geometry">
            <mxPoint x="195" y="313" as="sourcePoint" />
            <mxPoint x="245" y="263" as="targetPoint" />
            <Array as="points">
              <mxPoint x="375" y="203" />
            </Array>
          </mxGeometry>
        </mxCell>
        <mxCell id="imeKl7CBs8rkCJV9uNss-16" value="" style="curved=1;endArrow=classic;html=1;rounded=0;exitX=0;exitY=1;exitDx=0;exitDy=0;entryX=0.5;entryY=0;entryDx=0;entryDy=0;" parent="1" source="imeKl7CBs8rkCJV9uNss-10" target="imeKl7CBs8rkCJV9uNss-12" edge="1">
          <mxGeometry width="50" height="50" relative="1" as="geometry">
            <mxPoint x="323" y="283" as="sourcePoint" />
            <mxPoint x="265" y="343" as="targetPoint" />
            <Array as="points">
              <mxPoint x="317" y="303" />
            </Array>
          </mxGeometry>
        </mxCell>
        <mxCell id="imeKl7CBs8rkCJV9uNss-18" value="" style="curved=1;endArrow=classic;html=1;rounded=0;exitX=1;exitY=0.5;exitDx=0;exitDy=0;entryX=0.5;entryY=0;entryDx=0;entryDy=0;" parent="1" source="imeKl7CBs8rkCJV9uNss-9" target="imeKl7CBs8rkCJV9uNss-11" edge="1">
          <mxGeometry width="50" height="50" relative="1" as="geometry">
            <mxPoint x="623" y="193" as="sourcePoint" />
            <mxPoint x="565" y="253" as="targetPoint" />
            <Array as="points">
              <mxPoint x="515" y="203" />
            </Array>
          </mxGeometry>
        </mxCell>
        <mxCell id="imeKl7CBs8rkCJV9uNss-20" value="REPRESENTAÇÃO DA TREAP CONSTRUIDA" style="text;html=1;align=center;verticalAlign=middle;resizable=0;points=[];autosize=1;strokeColor=none;fillColor=none;" parent="1" vertex="1">
          <mxGeometry x="300" y="141" width="270" height="30" as="geometry" />
        </mxCell>
        <mxCell id="imeKl7CBs8rkCJV9uNss-27" value="7" style="ellipse;whiteSpace=wrap;html=1;aspect=fixed;" parent="1" vertex="1">
          <mxGeometry x="336.5" y="421" width="40" height="40" as="geometry" />
        </mxCell>
        <mxCell id="imeKl7CBs8rkCJV9uNss-28" value="" style="curved=1;endArrow=classic;html=1;rounded=0;exitX=1;exitY=1;exitDx=0;exitDy=0;entryX=0.5;entryY=0;entryDx=0;entryDy=0;" parent="1" source="imeKl7CBs8rkCJV9uNss-12" target="imeKl7CBs8rkCJV9uNss-27" edge="1">
          <mxGeometry width="50" height="50" relative="1" as="geometry">
            <mxPoint x="327.5" y="381" as="sourcePoint" />
            <mxPoint x="365.5" y="413" as="targetPoint" />
            <Array as="points">
              <mxPoint x="351.5" y="387" />
            </Array>
          </mxGeometry>
        </mxCell>
        <mxCell id="imeKl7CBs8rkCJV9uNss-36" value="" style="rounded=0;whiteSpace=wrap;html=1;fillColor=none;strokeColor=#3399FF;" parent="1" vertex="1">
          <mxGeometry x="219" y="20" width="413" height="40" as="geometry" />
        </mxCell>
        <mxCell id="imeKl7CBs8rkCJV9uNss-37" value="" style="rounded=0;whiteSpace=wrap;html=1;fillColor=none;strokeColor=#FF0000;" parent="1" vertex="1">
          <mxGeometry x="219" y="62" width="413" height="38" as="geometry" />
        </mxCell>
        <mxCell id="imeKl7CBs8rkCJV9uNss-38" value="90" style="text;html=1;align=center;verticalAlign=middle;whiteSpace=wrap;rounded=0;" parent="1" vertex="1">
          <mxGeometry x="449" y="210" width="20" height="20" as="geometry" />
        </mxCell>
        <mxCell id="imeKl7CBs8rkCJV9uNss-39" value="60" style="text;html=1;align=center;verticalAlign=middle;whiteSpace=wrap;rounded=0;" parent="1" vertex="1">
          <mxGeometry x="369" y="290" width="20" height="20" as="geometry" />
        </mxCell>
        <mxCell id="imeKl7CBs8rkCJV9uNss-40" value="30" style="text;html=1;align=center;verticalAlign=middle;whiteSpace=wrap;rounded=0;" parent="1" vertex="1">
          <mxGeometry x="316.5" y="380" width="20" height="20" as="geometry" />
        </mxCell>
        <mxCell id="imeKl7CBs8rkCJV9uNss-41" value="20" style="text;html=1;align=center;verticalAlign=middle;whiteSpace=wrap;rounded=0;" parent="1" vertex="1">
          <mxGeometry x="356.5" y="460" width="20" height="20" as="geometry" />
        </mxCell>
        <mxCell id="imeKl7CBs8rkCJV9uNss-43" value="50" style="text;html=1;align=center;verticalAlign=middle;whiteSpace=wrap;rounded=0;" parent="1" vertex="1">
          <mxGeometry x="529" y="290" width="20" height="20" as="geometry" />
        </mxCell>
        <mxCell id="imeKl7CBs8rkCJV9uNss-45" value="2" style="ellipse;whiteSpace=wrap;html=1;aspect=fixed;" parent="1" vertex="1">
          <mxGeometry x="375" y="500" width="40" height="40" as="geometry" />
        </mxCell>
        <mxCell id="imeKl7CBs8rkCJV9uNss-46" value="" style="curved=1;endArrow=classic;html=1;rounded=0;exitX=1;exitY=1;exitDx=0;exitDy=0;entryX=0.5;entryY=0;entryDx=0;entryDy=0;" parent="1" source="imeKl7CBs8rkCJV9uNss-27" target="imeKl7CBs8rkCJV9uNss-45" edge="1">
          <mxGeometry width="50" height="50" relative="1" as="geometry">
            <mxPoint x="376.5" y="450" as="sourcePoint" />
            <mxPoint x="411" y="486" as="targetPoint" />
            <Array as="points">
              <mxPoint x="397" y="460" />
            </Array>
          </mxGeometry>
        </mxCell>
        <mxCell id="imeKl7CBs8rkCJV9uNss-47" value="10" style="text;html=1;align=center;verticalAlign=middle;whiteSpace=wrap;rounded=0;" parent="1" vertex="1">
          <mxGeometry x="409" y="530" width="20" height="20" as="geometry" />
        </mxCell>
        <mxCell id="wji47EjEwM8MeWAMWGaV-1" value="" style="shape=table;startSize=0;container=1;collapsible=0;childLayout=tableLayout;fontSize=16;" vertex="1" parent="1">
          <mxGeometry x="1055" y="73" width="482" height="80" as="geometry" />
        </mxCell>
        <mxCell id="wji47EjEwM8MeWAMWGaV-2" value="" style="shape=tableRow;horizontal=0;startSize=0;swimlaneHead=0;swimlaneBody=0;strokeColor=inherit;top=0;left=0;bottom=0;right=0;collapsible=0;dropTarget=0;fillColor=none;points=[[0,0.5],[1,0.5]];portConstraint=eastwest;fontSize=16;" vertex="1" parent="wji47EjEwM8MeWAMWGaV-1">
          <mxGeometry width="482" height="40" as="geometry" />
        </mxCell>
        <mxCell id="wji47EjEwM8MeWAMWGaV-3" value="35" style="shape=partialRectangle;html=1;whiteSpace=wrap;connectable=0;strokeColor=inherit;overflow=hidden;fillColor=none;top=0;left=0;bottom=0;right=0;pointerEvents=1;fontSize=16;" vertex="1" parent="wji47EjEwM8MeWAMWGaV-2">
          <mxGeometry width="69" height="40" as="geometry">
            <mxRectangle width="69" height="40" as="alternateBounds" />
          </mxGeometry>
        </mxCell>
        <mxCell id="wji47EjEwM8MeWAMWGaV-4" value="22" style="shape=partialRectangle;html=1;whiteSpace=wrap;connectable=0;strokeColor=inherit;overflow=hidden;fillColor=none;top=0;left=0;bottom=0;right=0;pointerEvents=1;fontSize=16;" vertex="1" parent="wji47EjEwM8MeWAMWGaV-2">
          <mxGeometry x="69" width="68" height="40" as="geometry">
            <mxRectangle width="68" height="40" as="alternateBounds" />
          </mxGeometry>
        </mxCell>
        <mxCell id="wji47EjEwM8MeWAMWGaV-5" value="7" style="shape=partialRectangle;html=1;whiteSpace=wrap;connectable=0;strokeColor=inherit;overflow=hidden;fillColor=none;top=0;left=0;bottom=0;right=0;pointerEvents=1;fontSize=16;" vertex="1" parent="wji47EjEwM8MeWAMWGaV-2">
          <mxGeometry x="137" width="69" height="40" as="geometry">
            <mxRectangle width="69" height="40" as="alternateBounds" />
          </mxGeometry>
        </mxCell>
        <mxCell id="wji47EjEwM8MeWAMWGaV-6" value="1" style="shape=partialRectangle;html=1;whiteSpace=wrap;connectable=0;strokeColor=inherit;overflow=hidden;fillColor=none;top=0;left=0;bottom=0;right=0;pointerEvents=1;fontSize=16;" vertex="1" parent="wji47EjEwM8MeWAMWGaV-2">
          <mxGeometry x="206" width="69" height="40" as="geometry">
            <mxRectangle width="69" height="40" as="alternateBounds" />
          </mxGeometry>
        </mxCell>
        <mxCell id="wji47EjEwM8MeWAMWGaV-7" value="13" style="shape=partialRectangle;html=1;whiteSpace=wrap;connectable=0;strokeColor=inherit;overflow=hidden;fillColor=none;top=0;left=0;bottom=0;right=0;pointerEvents=1;fontSize=16;" vertex="1" parent="wji47EjEwM8MeWAMWGaV-2">
          <mxGeometry x="275" width="69" height="40" as="geometry">
            <mxRectangle width="69" height="40" as="alternateBounds" />
          </mxGeometry>
        </mxCell>
        <mxCell id="wji47EjEwM8MeWAMWGaV-8" value="2" style="shape=partialRectangle;html=1;whiteSpace=wrap;connectable=0;strokeColor=inherit;overflow=hidden;fillColor=none;top=0;left=0;bottom=0;right=0;pointerEvents=1;fontSize=16;" vertex="1" parent="wji47EjEwM8MeWAMWGaV-2">
          <mxGeometry x="344" width="69" height="40" as="geometry">
            <mxRectangle width="69" height="40" as="alternateBounds" />
          </mxGeometry>
        </mxCell>
        <mxCell id="wji47EjEwM8MeWAMWGaV-40" value="29" style="shape=partialRectangle;html=1;whiteSpace=wrap;connectable=0;strokeColor=inherit;overflow=hidden;fillColor=none;top=0;left=0;bottom=0;right=0;pointerEvents=1;fontSize=16;" vertex="1" parent="wji47EjEwM8MeWAMWGaV-2">
          <mxGeometry x="413" width="69" height="40" as="geometry">
            <mxRectangle width="69" height="40" as="alternateBounds" />
          </mxGeometry>
        </mxCell>
        <mxCell id="wji47EjEwM8MeWAMWGaV-9" style="shape=tableRow;horizontal=0;startSize=0;swimlaneHead=0;swimlaneBody=0;strokeColor=inherit;top=0;left=0;bottom=0;right=0;collapsible=0;dropTarget=0;fillColor=none;points=[[0,0.5],[1,0.5]];portConstraint=eastwest;fontSize=16;" vertex="1" parent="wji47EjEwM8MeWAMWGaV-1">
          <mxGeometry y="40" width="482" height="40" as="geometry" />
        </mxCell>
        <mxCell id="wji47EjEwM8MeWAMWGaV-10" value="50" style="shape=partialRectangle;html=1;whiteSpace=wrap;connectable=0;strokeColor=inherit;overflow=hidden;fillColor=none;top=0;left=0;bottom=0;right=0;pointerEvents=1;fontSize=16;" vertex="1" parent="wji47EjEwM8MeWAMWGaV-9">
          <mxGeometry width="69" height="40" as="geometry">
            <mxRectangle width="69" height="40" as="alternateBounds" />
          </mxGeometry>
        </mxCell>
        <mxCell id="wji47EjEwM8MeWAMWGaV-11" value="90" style="shape=partialRectangle;html=1;whiteSpace=wrap;connectable=0;strokeColor=inherit;overflow=hidden;fillColor=none;top=0;left=0;bottom=0;right=0;pointerEvents=1;fontSize=16;" vertex="1" parent="wji47EjEwM8MeWAMWGaV-9">
          <mxGeometry x="69" width="68" height="40" as="geometry">
            <mxRectangle width="68" height="40" as="alternateBounds" />
          </mxGeometry>
        </mxCell>
        <mxCell id="wji47EjEwM8MeWAMWGaV-12" value="20" style="shape=partialRectangle;html=1;whiteSpace=wrap;connectable=0;strokeColor=inherit;overflow=hidden;fillColor=none;top=0;left=0;bottom=0;right=0;pointerEvents=1;fontSize=16;" vertex="1" parent="wji47EjEwM8MeWAMWGaV-9">
          <mxGeometry x="137" width="69" height="40" as="geometry">
            <mxRectangle width="69" height="40" as="alternateBounds" />
          </mxGeometry>
        </mxCell>
        <mxCell id="wji47EjEwM8MeWAMWGaV-13" value="30" style="shape=partialRectangle;html=1;whiteSpace=wrap;connectable=0;strokeColor=inherit;overflow=hidden;fillColor=none;top=0;left=0;bottom=0;right=0;pointerEvents=1;fontSize=16;" vertex="1" parent="wji47EjEwM8MeWAMWGaV-9">
          <mxGeometry x="206" width="69" height="40" as="geometry">
            <mxRectangle width="69" height="40" as="alternateBounds" />
          </mxGeometry>
        </mxCell>
        <mxCell id="wji47EjEwM8MeWAMWGaV-14" value="60" style="shape=partialRectangle;html=1;whiteSpace=wrap;connectable=0;strokeColor=inherit;overflow=hidden;fillColor=none;top=0;left=0;bottom=0;right=0;pointerEvents=1;fontSize=16;" vertex="1" parent="wji47EjEwM8MeWAMWGaV-9">
          <mxGeometry x="275" width="69" height="40" as="geometry">
            <mxRectangle width="69" height="40" as="alternateBounds" />
          </mxGeometry>
        </mxCell>
        <mxCell id="wji47EjEwM8MeWAMWGaV-15" value="10" style="shape=partialRectangle;html=1;whiteSpace=wrap;connectable=0;strokeColor=inherit;overflow=hidden;fillColor=none;top=0;left=0;bottom=0;right=0;pointerEvents=1;fontSize=16;" vertex="1" parent="wji47EjEwM8MeWAMWGaV-9">
          <mxGeometry x="344" width="69" height="40" as="geometry">
            <mxRectangle width="69" height="40" as="alternateBounds" />
          </mxGeometry>
        </mxCell>
        <mxCell id="wji47EjEwM8MeWAMWGaV-41" value="55" style="shape=partialRectangle;html=1;whiteSpace=wrap;connectable=0;strokeColor=inherit;overflow=hidden;fillColor=none;top=0;left=0;bottom=0;right=0;pointerEvents=1;fontSize=16;" vertex="1" parent="wji47EjEwM8MeWAMWGaV-9">
          <mxGeometry x="413" width="69" height="40" as="geometry">
            <mxRectangle width="69" height="40" as="alternateBounds" />
          </mxGeometry>
        </mxCell>
        <mxCell id="wji47EjEwM8MeWAMWGaV-16" value="22" style="ellipse;whiteSpace=wrap;html=1;aspect=fixed;" vertex="1" parent="1">
          <mxGeometry x="1127" y="163" width="40" height="40" as="geometry" />
        </mxCell>
        <mxCell id="wji47EjEwM8MeWAMWGaV-17" value="13" style="ellipse;whiteSpace=wrap;html=1;aspect=fixed;" vertex="1" parent="1">
          <mxGeometry x="1048.5" y="243" width="40" height="40" as="geometry" />
        </mxCell>
        <mxCell id="wji47EjEwM8MeWAMWGaV-18" value="35" style="ellipse;whiteSpace=wrap;html=1;aspect=fixed;" vertex="1" parent="1">
          <mxGeometry x="1207" y="243" width="40" height="40" as="geometry" />
        </mxCell>
        <mxCell id="wji47EjEwM8MeWAMWGaV-19" value="1" style="ellipse;whiteSpace=wrap;html=1;aspect=fixed;" vertex="1" parent="1">
          <mxGeometry x="1008.5" y="323" width="40" height="40" as="geometry" />
        </mxCell>
        <mxCell id="wji47EjEwM8MeWAMWGaV-20" value="" style="curved=1;endArrow=classic;html=1;rounded=0;exitX=0;exitY=0.5;exitDx=0;exitDy=0;entryX=0.5;entryY=0;entryDx=0;entryDy=0;" edge="1" parent="1" source="wji47EjEwM8MeWAMWGaV-16" target="wji47EjEwM8MeWAMWGaV-17">
          <mxGeometry width="50" height="50" relative="1" as="geometry">
            <mxPoint x="907" y="293" as="sourcePoint" />
            <mxPoint x="957" y="243" as="targetPoint" />
            <Array as="points">
              <mxPoint x="1087" y="183" />
            </Array>
          </mxGeometry>
        </mxCell>
        <mxCell id="wji47EjEwM8MeWAMWGaV-21" value="" style="curved=1;endArrow=classic;html=1;rounded=0;exitX=0;exitY=1;exitDx=0;exitDy=0;entryX=0.5;entryY=0;entryDx=0;entryDy=0;" edge="1" parent="1" source="wji47EjEwM8MeWAMWGaV-17" target="wji47EjEwM8MeWAMWGaV-19">
          <mxGeometry width="50" height="50" relative="1" as="geometry">
            <mxPoint x="1035" y="263" as="sourcePoint" />
            <mxPoint x="977" y="323" as="targetPoint" />
            <Array as="points">
              <mxPoint x="1029" y="283" />
            </Array>
          </mxGeometry>
        </mxCell>
        <mxCell id="wji47EjEwM8MeWAMWGaV-22" value="" style="curved=1;endArrow=classic;html=1;rounded=0;exitX=1;exitY=0.5;exitDx=0;exitDy=0;entryX=0.5;entryY=0;entryDx=0;entryDy=0;" edge="1" parent="1" source="wji47EjEwM8MeWAMWGaV-16" target="wji47EjEwM8MeWAMWGaV-18">
          <mxGeometry width="50" height="50" relative="1" as="geometry">
            <mxPoint x="1335" y="173" as="sourcePoint" />
            <mxPoint x="1277" y="233" as="targetPoint" />
            <Array as="points">
              <mxPoint x="1227" y="183" />
            </Array>
          </mxGeometry>
        </mxCell>
        <mxCell id="wji47EjEwM8MeWAMWGaV-24" value="7" style="ellipse;whiteSpace=wrap;html=1;aspect=fixed;" vertex="1" parent="1">
          <mxGeometry x="1048.5" y="401" width="40" height="40" as="geometry" />
        </mxCell>
        <mxCell id="wji47EjEwM8MeWAMWGaV-25" value="" style="curved=1;endArrow=classic;html=1;rounded=0;exitX=1;exitY=1;exitDx=0;exitDy=0;entryX=0.5;entryY=0;entryDx=0;entryDy=0;" edge="1" parent="1" source="wji47EjEwM8MeWAMWGaV-19" target="wji47EjEwM8MeWAMWGaV-24">
          <mxGeometry width="50" height="50" relative="1" as="geometry">
            <mxPoint x="1039.5" y="361" as="sourcePoint" />
            <mxPoint x="1077.5" y="393" as="targetPoint" />
            <Array as="points">
              <mxPoint x="1063.5" y="367" />
            </Array>
          </mxGeometry>
        </mxCell>
        <mxCell id="wji47EjEwM8MeWAMWGaV-26" value="" style="rounded=0;whiteSpace=wrap;html=1;fillColor=none;strokeColor=#3399FF;" vertex="1" parent="1">
          <mxGeometry x="1055" y="73" width="482" height="40" as="geometry" />
        </mxCell>
        <mxCell id="wji47EjEwM8MeWAMWGaV-27" value="" style="rounded=0;whiteSpace=wrap;html=1;fillColor=none;strokeColor=#FF0000;" vertex="1" parent="1">
          <mxGeometry x="1055" y="115" width="482" height="38" as="geometry" />
        </mxCell>
        <mxCell id="wji47EjEwM8MeWAMWGaV-28" value="90" style="text;html=1;align=center;verticalAlign=middle;whiteSpace=wrap;rounded=0;" vertex="1" parent="1">
          <mxGeometry x="1161" y="190" width="20" height="20" as="geometry" />
        </mxCell>
        <mxCell id="wji47EjEwM8MeWAMWGaV-29" value="60" style="text;html=1;align=center;verticalAlign=middle;whiteSpace=wrap;rounded=0;" vertex="1" parent="1">
          <mxGeometry x="1081" y="270" width="20" height="20" as="geometry" />
        </mxCell>
        <mxCell id="wji47EjEwM8MeWAMWGaV-30" value="30" style="text;html=1;align=center;verticalAlign=middle;whiteSpace=wrap;rounded=0;" vertex="1" parent="1">
          <mxGeometry x="1028.5" y="360" width="20" height="20" as="geometry" />
        </mxCell>
        <mxCell id="wji47EjEwM8MeWAMWGaV-31" value="20" style="text;html=1;align=center;verticalAlign=middle;whiteSpace=wrap;rounded=0;" vertex="1" parent="1">
          <mxGeometry x="1068.5" y="440" width="20" height="20" as="geometry" />
        </mxCell>
        <mxCell id="wji47EjEwM8MeWAMWGaV-32" value="50" style="text;html=1;align=center;verticalAlign=middle;whiteSpace=wrap;rounded=0;" vertex="1" parent="1">
          <mxGeometry x="1241" y="270" width="20" height="20" as="geometry" />
        </mxCell>
        <mxCell id="wji47EjEwM8MeWAMWGaV-33" value="2" style="ellipse;whiteSpace=wrap;html=1;aspect=fixed;" vertex="1" parent="1">
          <mxGeometry x="1087" y="480" width="40" height="40" as="geometry" />
        </mxCell>
        <mxCell id="wji47EjEwM8MeWAMWGaV-34" value="" style="curved=1;endArrow=classic;html=1;rounded=0;exitX=1;exitY=1;exitDx=0;exitDy=0;entryX=0.5;entryY=0;entryDx=0;entryDy=0;" edge="1" parent="1" source="wji47EjEwM8MeWAMWGaV-24" target="wji47EjEwM8MeWAMWGaV-33">
          <mxGeometry width="50" height="50" relative="1" as="geometry">
            <mxPoint x="1088.5" y="430" as="sourcePoint" />
            <mxPoint x="1123" y="466" as="targetPoint" />
            <Array as="points">
              <mxPoint x="1109" y="440" />
            </Array>
          </mxGeometry>
        </mxCell>
        <mxCell id="wji47EjEwM8MeWAMWGaV-35" value="10" style="text;html=1;align=center;verticalAlign=middle;whiteSpace=wrap;rounded=0;" vertex="1" parent="1">
          <mxGeometry x="1121" y="510" width="20" height="20" as="geometry" />
        </mxCell>
        <mxCell id="wji47EjEwM8MeWAMWGaV-36" value="INSERÇÃO" style="text;html=1;align=center;verticalAlign=middle;whiteSpace=wrap;rounded=0;" vertex="1" parent="1">
          <mxGeometry x="1257" y="34" width="80" height="30" as="geometry" />
        </mxCell>
        <mxCell id="wji47EjEwM8MeWAMWGaV-37" value="29" style="ellipse;whiteSpace=wrap;html=1;aspect=fixed;strokeColor=#FF0000;" vertex="1" parent="1">
          <mxGeometry x="1167.5" y="320" width="40" height="40" as="geometry" />
        </mxCell>
        <mxCell id="wji47EjEwM8MeWAMWGaV-38" value="" style="curved=1;endArrow=classic;html=1;rounded=0;exitX=0;exitY=1;exitDx=0;exitDy=0;entryX=0.5;entryY=0;entryDx=0;entryDy=0;" edge="1" parent="1" target="wji47EjEwM8MeWAMWGaV-37" source="wji47EjEwM8MeWAMWGaV-18">
          <mxGeometry width="50" height="50" relative="1" as="geometry">
            <mxPoint x="1212.5" y="277" as="sourcePoint" />
            <mxPoint x="1135.5" y="323" as="targetPoint" />
            <Array as="points">
              <mxPoint x="1187.5" y="283" />
            </Array>
          </mxGeometry>
        </mxCell>
        <mxCell id="wji47EjEwM8MeWAMWGaV-39" value="55" style="text;html=1;align=center;verticalAlign=middle;whiteSpace=wrap;rounded=0;" vertex="1" parent="1">
          <mxGeometry x="1201" y="350" width="20" height="20" as="geometry" />
        </mxCell>
        <mxCell id="wji47EjEwM8MeWAMWGaV-42" value="" style="curved=1;endArrow=classic;html=1;rounded=0;strokeColor=#FF0000;" edge="1" parent="1">
          <mxGeometry width="50" height="50" relative="1" as="geometry">
            <mxPoint x="1165" y="315" as="sourcePoint" />
            <mxPoint x="1205" y="263" as="targetPoint" />
            <Array as="points">
              <mxPoint x="1155" y="293" />
              <mxPoint x="1175" y="263" />
            </Array>
          </mxGeometry>
        </mxCell>
        <mxCell id="wji47EjEwM8MeWAMWGaV-43" value="Rotação a direita" style="text;html=1;align=center;verticalAlign=middle;whiteSpace=wrap;rounded=0;fontSize=10;" vertex="1" parent="1">
          <mxGeometry x="1197" y="290" width="60" height="30" as="geometry" />
        </mxCell>
        <mxCell id="wji47EjEwM8MeWAMWGaV-45" value="22" style="ellipse;whiteSpace=wrap;html=1;aspect=fixed;" vertex="1" parent="1">
          <mxGeometry x="1433.5" y="163" width="40" height="40" as="geometry" />
        </mxCell>
        <mxCell id="wji47EjEwM8MeWAMWGaV-46" value="13" style="ellipse;whiteSpace=wrap;html=1;aspect=fixed;" vertex="1" parent="1">
          <mxGeometry x="1355" y="243" width="40" height="40" as="geometry" />
        </mxCell>
        <mxCell id="wji47EjEwM8MeWAMWGaV-47" value="29" style="ellipse;whiteSpace=wrap;html=1;aspect=fixed;strokeColor=#FF0000;" vertex="1" parent="1">
          <mxGeometry x="1513.5" y="243" width="40" height="40" as="geometry" />
        </mxCell>
        <mxCell id="wji47EjEwM8MeWAMWGaV-48" value="1" style="ellipse;whiteSpace=wrap;html=1;aspect=fixed;" vertex="1" parent="1">
          <mxGeometry x="1315" y="323" width="40" height="40" as="geometry" />
        </mxCell>
        <mxCell id="wji47EjEwM8MeWAMWGaV-49" value="" style="curved=1;endArrow=classic;html=1;rounded=0;exitX=0;exitY=0.5;exitDx=0;exitDy=0;entryX=0.5;entryY=0;entryDx=0;entryDy=0;" edge="1" parent="1" source="wji47EjEwM8MeWAMWGaV-45" target="wji47EjEwM8MeWAMWGaV-46">
          <mxGeometry width="50" height="50" relative="1" as="geometry">
            <mxPoint x="1213.5" y="293" as="sourcePoint" />
            <mxPoint x="1263.5" y="243" as="targetPoint" />
            <Array as="points">
              <mxPoint x="1393.5" y="183" />
            </Array>
          </mxGeometry>
        </mxCell>
        <mxCell id="wji47EjEwM8MeWAMWGaV-50" value="" style="curved=1;endArrow=classic;html=1;rounded=0;exitX=0;exitY=1;exitDx=0;exitDy=0;entryX=0.5;entryY=0;entryDx=0;entryDy=0;" edge="1" parent="1" source="wji47EjEwM8MeWAMWGaV-46" target="wji47EjEwM8MeWAMWGaV-48">
          <mxGeometry width="50" height="50" relative="1" as="geometry">
            <mxPoint x="1341.5" y="263" as="sourcePoint" />
            <mxPoint x="1283.5" y="323" as="targetPoint" />
            <Array as="points">
              <mxPoint x="1335.5" y="283" />
            </Array>
          </mxGeometry>
        </mxCell>
        <mxCell id="wji47EjEwM8MeWAMWGaV-51" value="" style="curved=1;endArrow=classic;html=1;rounded=0;exitX=1;exitY=0.5;exitDx=0;exitDy=0;entryX=0.5;entryY=0;entryDx=0;entryDy=0;" edge="1" parent="1" source="wji47EjEwM8MeWAMWGaV-45" target="wji47EjEwM8MeWAMWGaV-47">
          <mxGeometry width="50" height="50" relative="1" as="geometry">
            <mxPoint x="1641.5" y="173" as="sourcePoint" />
            <mxPoint x="1583.5" y="233" as="targetPoint" />
            <Array as="points">
              <mxPoint x="1533.5" y="183" />
            </Array>
          </mxGeometry>
        </mxCell>
        <mxCell id="wji47EjEwM8MeWAMWGaV-52" value="7" style="ellipse;whiteSpace=wrap;html=1;aspect=fixed;" vertex="1" parent="1">
          <mxGeometry x="1355" y="401" width="40" height="40" as="geometry" />
        </mxCell>
        <mxCell id="wji47EjEwM8MeWAMWGaV-53" value="" style="curved=1;endArrow=classic;html=1;rounded=0;exitX=1;exitY=1;exitDx=0;exitDy=0;entryX=0.5;entryY=0;entryDx=0;entryDy=0;" edge="1" parent="1" source="wji47EjEwM8MeWAMWGaV-48" target="wji47EjEwM8MeWAMWGaV-52">
          <mxGeometry width="50" height="50" relative="1" as="geometry">
            <mxPoint x="1346" y="361" as="sourcePoint" />
            <mxPoint x="1384" y="393" as="targetPoint" />
            <Array as="points">
              <mxPoint x="1370" y="367" />
            </Array>
          </mxGeometry>
        </mxCell>
        <mxCell id="wji47EjEwM8MeWAMWGaV-54" value="90" style="text;html=1;align=center;verticalAlign=middle;whiteSpace=wrap;rounded=0;" vertex="1" parent="1">
          <mxGeometry x="1467.5" y="190" width="20" height="20" as="geometry" />
        </mxCell>
        <mxCell id="wji47EjEwM8MeWAMWGaV-55" value="60" style="text;html=1;align=center;verticalAlign=middle;whiteSpace=wrap;rounded=0;" vertex="1" parent="1">
          <mxGeometry x="1387.5" y="270" width="20" height="20" as="geometry" />
        </mxCell>
        <mxCell id="wji47EjEwM8MeWAMWGaV-56" value="30" style="text;html=1;align=center;verticalAlign=middle;whiteSpace=wrap;rounded=0;" vertex="1" parent="1">
          <mxGeometry x="1335" y="360" width="20" height="20" as="geometry" />
        </mxCell>
        <mxCell id="wji47EjEwM8MeWAMWGaV-57" value="20" style="text;html=1;align=center;verticalAlign=middle;whiteSpace=wrap;rounded=0;" vertex="1" parent="1">
          <mxGeometry x="1375" y="440" width="20" height="20" as="geometry" />
        </mxCell>
        <mxCell id="wji47EjEwM8MeWAMWGaV-58" value="55" style="text;html=1;align=center;verticalAlign=middle;whiteSpace=wrap;rounded=0;" vertex="1" parent="1">
          <mxGeometry x="1541" y="283" width="20" height="20" as="geometry" />
        </mxCell>
        <mxCell id="wji47EjEwM8MeWAMWGaV-59" value="2" style="ellipse;whiteSpace=wrap;html=1;aspect=fixed;" vertex="1" parent="1">
          <mxGeometry x="1393.5" y="480" width="40" height="40" as="geometry" />
        </mxCell>
        <mxCell id="wji47EjEwM8MeWAMWGaV-60" value="" style="curved=1;endArrow=classic;html=1;rounded=0;exitX=1;exitY=1;exitDx=0;exitDy=0;entryX=0.5;entryY=0;entryDx=0;entryDy=0;" edge="1" parent="1" source="wji47EjEwM8MeWAMWGaV-52" target="wji47EjEwM8MeWAMWGaV-59">
          <mxGeometry width="50" height="50" relative="1" as="geometry">
            <mxPoint x="1395" y="430" as="sourcePoint" />
            <mxPoint x="1429.5" y="466" as="targetPoint" />
            <Array as="points">
              <mxPoint x="1415.5" y="440" />
            </Array>
          </mxGeometry>
        </mxCell>
        <mxCell id="wji47EjEwM8MeWAMWGaV-61" value="10" style="text;html=1;align=center;verticalAlign=middle;whiteSpace=wrap;rounded=0;" vertex="1" parent="1">
          <mxGeometry x="1427.5" y="510" width="20" height="20" as="geometry" />
        </mxCell>
        <mxCell id="wji47EjEwM8MeWAMWGaV-62" value="35" style="ellipse;whiteSpace=wrap;html=1;aspect=fixed;" vertex="1" parent="1">
          <mxGeometry x="1553.5" y="320" width="40" height="40" as="geometry" />
        </mxCell>
        <mxCell id="wji47EjEwM8MeWAMWGaV-64" value="50" style="text;html=1;align=center;verticalAlign=middle;whiteSpace=wrap;rounded=0;" vertex="1" parent="1">
          <mxGeometry x="1585" y="350" width="20" height="20" as="geometry" />
        </mxCell>
        <mxCell id="wji47EjEwM8MeWAMWGaV-68" value="" style="curved=1;endArrow=classic;html=1;rounded=0;exitX=1;exitY=1;exitDx=0;exitDy=0;entryX=0.5;entryY=0;entryDx=0;entryDy=0;" edge="1" parent="1" source="wji47EjEwM8MeWAMWGaV-47" target="wji47EjEwM8MeWAMWGaV-62">
          <mxGeometry width="50" height="50" relative="1" as="geometry">
            <mxPoint x="1553.5" y="275" as="sourcePoint" />
            <mxPoint x="1578.5" y="320" as="targetPoint" />
            <Array as="points">
              <mxPoint x="1575" y="283" />
            </Array>
          </mxGeometry>
        </mxCell>
        <mxCell id="wji47EjEwM8MeWAMWGaV-69" value="" style="endArrow=none;dashed=1;html=1;rounded=0;" edge="1" parent="1">
          <mxGeometry width="50" height="50" relative="1" as="geometry">
            <mxPoint x="980" y="548" as="sourcePoint" />
            <mxPoint x="980" y="159" as="targetPoint" />
          </mxGeometry>
        </mxCell>
        <mxCell id="wji47EjEwM8MeWAMWGaV-70" value="" style="endArrow=none;dashed=1;html=1;rounded=0;" edge="1" parent="1">
          <mxGeometry width="50" height="50" relative="1" as="geometry">
            <mxPoint x="982" y="548" as="sourcePoint" />
            <mxPoint x="1287" y="548" as="targetPoint" />
          </mxGeometry>
        </mxCell>
        <mxCell id="wji47EjEwM8MeWAMWGaV-71" value="" style="endArrow=none;dashed=1;html=1;rounded=0;" edge="1" parent="1">
          <mxGeometry width="50" height="50" relative="1" as="geometry">
            <mxPoint x="1285" y="548" as="sourcePoint" />
            <mxPoint x="1285" y="159" as="targetPoint" />
          </mxGeometry>
        </mxCell>
        <mxCell id="wji47EjEwM8MeWAMWGaV-72" value="" style="endArrow=none;dashed=1;html=1;rounded=0;" edge="1" parent="1">
          <mxGeometry width="50" height="50" relative="1" as="geometry">
            <mxPoint x="980" y="159" as="sourcePoint" />
            <mxPoint x="1285" y="159" as="targetPoint" />
          </mxGeometry>
        </mxCell>
        <mxCell id="wji47EjEwM8MeWAMWGaV-77" value="" style="endArrow=none;dashed=1;html=1;rounded=0;" edge="1" parent="1">
          <mxGeometry width="50" height="50" relative="1" as="geometry">
            <mxPoint x="1308" y="547" as="sourcePoint" />
            <mxPoint x="1308" y="158" as="targetPoint" />
          </mxGeometry>
        </mxCell>
        <mxCell id="wji47EjEwM8MeWAMWGaV-78" value="" style="endArrow=none;dashed=1;html=1;rounded=0;" edge="1" parent="1">
          <mxGeometry width="50" height="50" relative="1" as="geometry">
            <mxPoint x="1310" y="547" as="sourcePoint" />
            <mxPoint x="1615" y="547" as="targetPoint" />
          </mxGeometry>
        </mxCell>
        <mxCell id="wji47EjEwM8MeWAMWGaV-79" value="" style="endArrow=none;dashed=1;html=1;rounded=0;" edge="1" parent="1">
          <mxGeometry width="50" height="50" relative="1" as="geometry">
            <mxPoint x="1613" y="547" as="sourcePoint" />
            <mxPoint x="1613" y="158" as="targetPoint" />
          </mxGeometry>
        </mxCell>
        <mxCell id="wji47EjEwM8MeWAMWGaV-80" value="" style="endArrow=none;dashed=1;html=1;rounded=0;" edge="1" parent="1">
          <mxGeometry width="50" height="50" relative="1" as="geometry">
            <mxPoint x="1308" y="158" as="sourcePoint" />
            <mxPoint x="1613" y="158" as="targetPoint" />
          </mxGeometry>
        </mxCell>
        <mxCell id="wji47EjEwM8MeWAMWGaV-81" value="" style="shape=table;startSize=0;container=1;collapsible=0;childLayout=tableLayout;fontSize=16;" vertex="1" parent="1">
          <mxGeometry x="1055" y="603" width="482" height="80" as="geometry" />
        </mxCell>
        <mxCell id="wji47EjEwM8MeWAMWGaV-82" value="" style="shape=tableRow;horizontal=0;startSize=0;swimlaneHead=0;swimlaneBody=0;strokeColor=inherit;top=0;left=0;bottom=0;right=0;collapsible=0;dropTarget=0;fillColor=none;points=[[0,0.5],[1,0.5]];portConstraint=eastwest;fontSize=16;" vertex="1" parent="wji47EjEwM8MeWAMWGaV-81">
          <mxGeometry width="482" height="40" as="geometry" />
        </mxCell>
        <mxCell id="wji47EjEwM8MeWAMWGaV-83" value="35" style="shape=partialRectangle;html=1;whiteSpace=wrap;connectable=0;strokeColor=inherit;overflow=hidden;fillColor=none;top=0;left=0;bottom=0;right=0;pointerEvents=1;fontSize=16;" vertex="1" parent="wji47EjEwM8MeWAMWGaV-82">
          <mxGeometry width="69" height="40" as="geometry">
            <mxRectangle width="69" height="40" as="alternateBounds" />
          </mxGeometry>
        </mxCell>
        <mxCell id="wji47EjEwM8MeWAMWGaV-84" value="22" style="shape=partialRectangle;html=1;whiteSpace=wrap;connectable=0;strokeColor=inherit;overflow=hidden;fillColor=none;top=0;left=0;bottom=0;right=0;pointerEvents=1;fontSize=16;" vertex="1" parent="wji47EjEwM8MeWAMWGaV-82">
          <mxGeometry x="69" width="68" height="40" as="geometry">
            <mxRectangle width="68" height="40" as="alternateBounds" />
          </mxGeometry>
        </mxCell>
        <mxCell id="wji47EjEwM8MeWAMWGaV-85" value="7" style="shape=partialRectangle;html=1;whiteSpace=wrap;connectable=0;strokeColor=inherit;overflow=hidden;fillColor=none;top=0;left=0;bottom=0;right=0;pointerEvents=1;fontSize=16;" vertex="1" parent="wji47EjEwM8MeWAMWGaV-82">
          <mxGeometry x="137" width="69" height="40" as="geometry">
            <mxRectangle width="69" height="40" as="alternateBounds" />
          </mxGeometry>
        </mxCell>
        <mxCell id="wji47EjEwM8MeWAMWGaV-86" value="1" style="shape=partialRectangle;html=1;whiteSpace=wrap;connectable=0;strokeColor=inherit;overflow=hidden;fillColor=none;top=0;left=0;bottom=0;right=0;pointerEvents=1;fontSize=16;" vertex="1" parent="wji47EjEwM8MeWAMWGaV-82">
          <mxGeometry x="206" width="69" height="40" as="geometry">
            <mxRectangle width="69" height="40" as="alternateBounds" />
          </mxGeometry>
        </mxCell>
        <mxCell id="wji47EjEwM8MeWAMWGaV-87" value="13" style="shape=partialRectangle;html=1;whiteSpace=wrap;connectable=0;strokeColor=inherit;overflow=hidden;fillColor=none;top=0;left=0;bottom=0;right=0;pointerEvents=1;fontSize=16;" vertex="1" parent="wji47EjEwM8MeWAMWGaV-82">
          <mxGeometry x="275" width="69" height="40" as="geometry">
            <mxRectangle width="69" height="40" as="alternateBounds" />
          </mxGeometry>
        </mxCell>
        <mxCell id="wji47EjEwM8MeWAMWGaV-88" value="2" style="shape=partialRectangle;html=1;whiteSpace=wrap;connectable=0;strokeColor=inherit;overflow=hidden;fillColor=none;top=0;left=0;bottom=0;right=0;pointerEvents=1;fontSize=16;" vertex="1" parent="wji47EjEwM8MeWAMWGaV-82">
          <mxGeometry x="344" width="69" height="40" as="geometry">
            <mxRectangle width="69" height="40" as="alternateBounds" />
          </mxGeometry>
        </mxCell>
        <mxCell id="wji47EjEwM8MeWAMWGaV-89" value="29" style="shape=partialRectangle;html=1;whiteSpace=wrap;connectable=0;strokeColor=inherit;overflow=hidden;fillColor=none;top=0;left=0;bottom=0;right=0;pointerEvents=1;fontSize=16;" vertex="1" parent="wji47EjEwM8MeWAMWGaV-82">
          <mxGeometry x="413" width="69" height="40" as="geometry">
            <mxRectangle width="69" height="40" as="alternateBounds" />
          </mxGeometry>
        </mxCell>
        <mxCell id="wji47EjEwM8MeWAMWGaV-90" style="shape=tableRow;horizontal=0;startSize=0;swimlaneHead=0;swimlaneBody=0;strokeColor=inherit;top=0;left=0;bottom=0;right=0;collapsible=0;dropTarget=0;fillColor=none;points=[[0,0.5],[1,0.5]];portConstraint=eastwest;fontSize=16;" vertex="1" parent="wji47EjEwM8MeWAMWGaV-81">
          <mxGeometry y="40" width="482" height="40" as="geometry" />
        </mxCell>
        <mxCell id="wji47EjEwM8MeWAMWGaV-91" value="50" style="shape=partialRectangle;html=1;whiteSpace=wrap;connectable=0;strokeColor=inherit;overflow=hidden;fillColor=none;top=0;left=0;bottom=0;right=0;pointerEvents=1;fontSize=16;" vertex="1" parent="wji47EjEwM8MeWAMWGaV-90">
          <mxGeometry width="69" height="40" as="geometry">
            <mxRectangle width="69" height="40" as="alternateBounds" />
          </mxGeometry>
        </mxCell>
        <mxCell id="wji47EjEwM8MeWAMWGaV-92" value="90" style="shape=partialRectangle;html=1;whiteSpace=wrap;connectable=0;strokeColor=inherit;overflow=hidden;fillColor=none;top=0;left=0;bottom=0;right=0;pointerEvents=1;fontSize=16;" vertex="1" parent="wji47EjEwM8MeWAMWGaV-90">
          <mxGeometry x="69" width="68" height="40" as="geometry">
            <mxRectangle width="68" height="40" as="alternateBounds" />
          </mxGeometry>
        </mxCell>
        <mxCell id="wji47EjEwM8MeWAMWGaV-93" value="20" style="shape=partialRectangle;html=1;whiteSpace=wrap;connectable=0;strokeColor=inherit;overflow=hidden;fillColor=none;top=0;left=0;bottom=0;right=0;pointerEvents=1;fontSize=16;" vertex="1" parent="wji47EjEwM8MeWAMWGaV-90">
          <mxGeometry x="137" width="69" height="40" as="geometry">
            <mxRectangle width="69" height="40" as="alternateBounds" />
          </mxGeometry>
        </mxCell>
        <mxCell id="wji47EjEwM8MeWAMWGaV-94" value="30" style="shape=partialRectangle;html=1;whiteSpace=wrap;connectable=0;strokeColor=inherit;overflow=hidden;fillColor=none;top=0;left=0;bottom=0;right=0;pointerEvents=1;fontSize=16;" vertex="1" parent="wji47EjEwM8MeWAMWGaV-90">
          <mxGeometry x="206" width="69" height="40" as="geometry">
            <mxRectangle width="69" height="40" as="alternateBounds" />
          </mxGeometry>
        </mxCell>
        <mxCell id="wji47EjEwM8MeWAMWGaV-95" value="60" style="shape=partialRectangle;html=1;whiteSpace=wrap;connectable=0;strokeColor=inherit;overflow=hidden;fillColor=none;top=0;left=0;bottom=0;right=0;pointerEvents=1;fontSize=16;" vertex="1" parent="wji47EjEwM8MeWAMWGaV-90">
          <mxGeometry x="275" width="69" height="40" as="geometry">
            <mxRectangle width="69" height="40" as="alternateBounds" />
          </mxGeometry>
        </mxCell>
        <mxCell id="wji47EjEwM8MeWAMWGaV-96" value="10" style="shape=partialRectangle;html=1;whiteSpace=wrap;connectable=0;strokeColor=inherit;overflow=hidden;fillColor=none;top=0;left=0;bottom=0;right=0;pointerEvents=1;fontSize=16;" vertex="1" parent="wji47EjEwM8MeWAMWGaV-90">
          <mxGeometry x="344" width="69" height="40" as="geometry">
            <mxRectangle width="69" height="40" as="alternateBounds" />
          </mxGeometry>
        </mxCell>
        <mxCell id="wji47EjEwM8MeWAMWGaV-97" value="55" style="shape=partialRectangle;html=1;whiteSpace=wrap;connectable=0;strokeColor=inherit;overflow=hidden;fillColor=none;top=0;left=0;bottom=0;right=0;pointerEvents=1;fontSize=16;" vertex="1" parent="wji47EjEwM8MeWAMWGaV-90">
          <mxGeometry x="413" width="69" height="40" as="geometry">
            <mxRectangle width="69" height="40" as="alternateBounds" />
          </mxGeometry>
        </mxCell>
        <mxCell id="wji47EjEwM8MeWAMWGaV-107" value="" style="rounded=0;whiteSpace=wrap;html=1;fillColor=none;strokeColor=#3399FF;" vertex="1" parent="1">
          <mxGeometry x="1055" y="603" width="482" height="40" as="geometry" />
        </mxCell>
        <mxCell id="wji47EjEwM8MeWAMWGaV-108" value="" style="rounded=0;whiteSpace=wrap;html=1;fillColor=none;strokeColor=#FF0000;" vertex="1" parent="1">
          <mxGeometry x="1055" y="645" width="482" height="38" as="geometry" />
        </mxCell>
        <mxCell id="wji47EjEwM8MeWAMWGaV-117" value="REMOÇÃO" style="text;html=1;align=center;verticalAlign=middle;whiteSpace=wrap;rounded=0;" vertex="1" parent="1">
          <mxGeometry x="1253" y="569" width="80" height="30" as="geometry" />
        </mxCell>
        <mxCell id="wji47EjEwM8MeWAMWGaV-123" value="22" style="ellipse;whiteSpace=wrap;html=1;aspect=fixed;" vertex="1" parent="1">
          <mxGeometry x="1433.5" y="693" width="40" height="40" as="geometry" />
        </mxCell>
        <mxCell id="wji47EjEwM8MeWAMWGaV-124" value="13" style="ellipse;whiteSpace=wrap;html=1;aspect=fixed;" vertex="1" parent="1">
          <mxGeometry x="1355" y="773" width="40" height="40" as="geometry" />
        </mxCell>
        <mxCell id="wji47EjEwM8MeWAMWGaV-125" value="29" style="ellipse;whiteSpace=wrap;html=1;aspect=fixed;strokeColor=#FF0000;" vertex="1" parent="1">
          <mxGeometry x="1513.5" y="773" width="40" height="40" as="geometry" />
        </mxCell>
        <mxCell id="wji47EjEwM8MeWAMWGaV-126" value="1" style="ellipse;whiteSpace=wrap;html=1;aspect=fixed;" vertex="1" parent="1">
          <mxGeometry x="1315" y="853" width="40" height="40" as="geometry" />
        </mxCell>
        <mxCell id="wji47EjEwM8MeWAMWGaV-127" value="" style="curved=1;endArrow=classic;html=1;rounded=0;exitX=0;exitY=0.5;exitDx=0;exitDy=0;entryX=0.5;entryY=0;entryDx=0;entryDy=0;" edge="1" parent="1" source="wji47EjEwM8MeWAMWGaV-123" target="wji47EjEwM8MeWAMWGaV-124">
          <mxGeometry width="50" height="50" relative="1" as="geometry">
            <mxPoint x="1213.5" y="823" as="sourcePoint" />
            <mxPoint x="1263.5" y="773" as="targetPoint" />
            <Array as="points">
              <mxPoint x="1393.5" y="713" />
            </Array>
          </mxGeometry>
        </mxCell>
        <mxCell id="wji47EjEwM8MeWAMWGaV-128" value="" style="curved=1;endArrow=classic;html=1;rounded=0;exitX=0;exitY=1;exitDx=0;exitDy=0;entryX=0.5;entryY=0;entryDx=0;entryDy=0;" edge="1" parent="1" source="wji47EjEwM8MeWAMWGaV-124" target="wji47EjEwM8MeWAMWGaV-126">
          <mxGeometry width="50" height="50" relative="1" as="geometry">
            <mxPoint x="1341.5" y="793" as="sourcePoint" />
            <mxPoint x="1283.5" y="853" as="targetPoint" />
            <Array as="points">
              <mxPoint x="1335.5" y="813" />
            </Array>
          </mxGeometry>
        </mxCell>
        <mxCell id="wji47EjEwM8MeWAMWGaV-129" value="" style="curved=1;endArrow=classic;html=1;rounded=0;exitX=1;exitY=0.5;exitDx=0;exitDy=0;entryX=0.5;entryY=0;entryDx=0;entryDy=0;" edge="1" parent="1" source="wji47EjEwM8MeWAMWGaV-123" target="wji47EjEwM8MeWAMWGaV-125">
          <mxGeometry width="50" height="50" relative="1" as="geometry">
            <mxPoint x="1641.5" y="703" as="sourcePoint" />
            <mxPoint x="1583.5" y="763" as="targetPoint" />
            <Array as="points">
              <mxPoint x="1533.5" y="713" />
            </Array>
          </mxGeometry>
        </mxCell>
        <mxCell id="wji47EjEwM8MeWAMWGaV-130" value="7" style="ellipse;whiteSpace=wrap;html=1;aspect=fixed;" vertex="1" parent="1">
          <mxGeometry x="1355" y="931" width="40" height="40" as="geometry" />
        </mxCell>
        <mxCell id="wji47EjEwM8MeWAMWGaV-131" value="" style="curved=1;endArrow=classic;html=1;rounded=0;exitX=1;exitY=1;exitDx=0;exitDy=0;entryX=0.5;entryY=0;entryDx=0;entryDy=0;" edge="1" parent="1" source="wji47EjEwM8MeWAMWGaV-126" target="wji47EjEwM8MeWAMWGaV-130">
          <mxGeometry width="50" height="50" relative="1" as="geometry">
            <mxPoint x="1346" y="891" as="sourcePoint" />
            <mxPoint x="1384" y="923" as="targetPoint" />
            <Array as="points">
              <mxPoint x="1370" y="897" />
            </Array>
          </mxGeometry>
        </mxCell>
        <mxCell id="wji47EjEwM8MeWAMWGaV-132" value="90" style="text;html=1;align=center;verticalAlign=middle;whiteSpace=wrap;rounded=0;" vertex="1" parent="1">
          <mxGeometry x="1467.5" y="720" width="20" height="20" as="geometry" />
        </mxCell>
        <mxCell id="wji47EjEwM8MeWAMWGaV-133" value="60" style="text;html=1;align=center;verticalAlign=middle;whiteSpace=wrap;rounded=0;" vertex="1" parent="1">
          <mxGeometry x="1387.5" y="800" width="20" height="20" as="geometry" />
        </mxCell>
        <mxCell id="wji47EjEwM8MeWAMWGaV-134" value="30" style="text;html=1;align=center;verticalAlign=middle;whiteSpace=wrap;rounded=0;" vertex="1" parent="1">
          <mxGeometry x="1335" y="890" width="20" height="20" as="geometry" />
        </mxCell>
        <mxCell id="wji47EjEwM8MeWAMWGaV-135" value="20" style="text;html=1;align=center;verticalAlign=middle;whiteSpace=wrap;rounded=0;" vertex="1" parent="1">
          <mxGeometry x="1375" y="970" width="20" height="20" as="geometry" />
        </mxCell>
        <mxCell id="wji47EjEwM8MeWAMWGaV-136" value="55" style="text;html=1;align=center;verticalAlign=middle;whiteSpace=wrap;rounded=0;" vertex="1" parent="1">
          <mxGeometry x="1541" y="813" width="20" height="20" as="geometry" />
        </mxCell>
        <mxCell id="wji47EjEwM8MeWAMWGaV-137" value="2" style="ellipse;whiteSpace=wrap;html=1;aspect=fixed;" vertex="1" parent="1">
          <mxGeometry x="1393.5" y="1010" width="40" height="40" as="geometry" />
        </mxCell>
        <mxCell id="wji47EjEwM8MeWAMWGaV-138" value="" style="curved=1;endArrow=classic;html=1;rounded=0;exitX=1;exitY=1;exitDx=0;exitDy=0;entryX=0.5;entryY=0;entryDx=0;entryDy=0;" edge="1" parent="1" source="wji47EjEwM8MeWAMWGaV-130" target="wji47EjEwM8MeWAMWGaV-137">
          <mxGeometry width="50" height="50" relative="1" as="geometry">
            <mxPoint x="1395" y="960" as="sourcePoint" />
            <mxPoint x="1429.5" y="996" as="targetPoint" />
            <Array as="points">
              <mxPoint x="1415.5" y="970" />
            </Array>
          </mxGeometry>
        </mxCell>
        <mxCell id="wji47EjEwM8MeWAMWGaV-139" value="10" style="text;html=1;align=center;verticalAlign=middle;whiteSpace=wrap;rounded=0;" vertex="1" parent="1">
          <mxGeometry x="1427.5" y="1040" width="20" height="20" as="geometry" />
        </mxCell>
        <mxCell id="wji47EjEwM8MeWAMWGaV-140" value="35" style="ellipse;whiteSpace=wrap;html=1;aspect=fixed;" vertex="1" parent="1">
          <mxGeometry x="1553.5" y="850" width="40" height="40" as="geometry" />
        </mxCell>
        <mxCell id="wji47EjEwM8MeWAMWGaV-141" value="50" style="text;html=1;align=center;verticalAlign=middle;whiteSpace=wrap;rounded=0;" vertex="1" parent="1">
          <mxGeometry x="1585" y="880" width="20" height="20" as="geometry" />
        </mxCell>
        <mxCell id="wji47EjEwM8MeWAMWGaV-142" value="" style="curved=1;endArrow=classic;html=1;rounded=0;exitX=1;exitY=1;exitDx=0;exitDy=0;entryX=0.5;entryY=0;entryDx=0;entryDy=0;" edge="1" parent="1" source="wji47EjEwM8MeWAMWGaV-125" target="wji47EjEwM8MeWAMWGaV-140">
          <mxGeometry width="50" height="50" relative="1" as="geometry">
            <mxPoint x="1553.5" y="805" as="sourcePoint" />
            <mxPoint x="1578.5" y="850" as="targetPoint" />
            <Array as="points">
              <mxPoint x="1575" y="813" />
            </Array>
          </mxGeometry>
        </mxCell>
        <mxCell id="wji47EjEwM8MeWAMWGaV-143" value="" style="endArrow=none;dashed=1;html=1;rounded=0;" edge="1" parent="1">
          <mxGeometry width="50" height="50" relative="1" as="geometry">
            <mxPoint x="980" y="1078" as="sourcePoint" />
            <mxPoint x="980" y="689" as="targetPoint" />
          </mxGeometry>
        </mxCell>
        <mxCell id="wji47EjEwM8MeWAMWGaV-144" value="" style="endArrow=none;dashed=1;html=1;rounded=0;" edge="1" parent="1">
          <mxGeometry width="50" height="50" relative="1" as="geometry">
            <mxPoint x="982" y="1078" as="sourcePoint" />
            <mxPoint x="1287" y="1078" as="targetPoint" />
          </mxGeometry>
        </mxCell>
        <mxCell id="wji47EjEwM8MeWAMWGaV-145" value="" style="endArrow=none;dashed=1;html=1;rounded=0;" edge="1" parent="1">
          <mxGeometry width="50" height="50" relative="1" as="geometry">
            <mxPoint x="1285" y="1078" as="sourcePoint" />
            <mxPoint x="1285" y="689" as="targetPoint" />
          </mxGeometry>
        </mxCell>
        <mxCell id="wji47EjEwM8MeWAMWGaV-146" value="" style="endArrow=none;dashed=1;html=1;rounded=0;" edge="1" parent="1">
          <mxGeometry width="50" height="50" relative="1" as="geometry">
            <mxPoint x="980" y="689" as="sourcePoint" />
            <mxPoint x="1285" y="689" as="targetPoint" />
          </mxGeometry>
        </mxCell>
        <mxCell id="wji47EjEwM8MeWAMWGaV-147" value="" style="endArrow=none;dashed=1;html=1;rounded=0;" edge="1" parent="1">
          <mxGeometry width="50" height="50" relative="1" as="geometry">
            <mxPoint x="1308" y="1077" as="sourcePoint" />
            <mxPoint x="1308" y="688" as="targetPoint" />
          </mxGeometry>
        </mxCell>
        <mxCell id="wji47EjEwM8MeWAMWGaV-148" value="" style="endArrow=none;dashed=1;html=1;rounded=0;" edge="1" parent="1">
          <mxGeometry width="50" height="50" relative="1" as="geometry">
            <mxPoint x="1310" y="1077" as="sourcePoint" />
            <mxPoint x="1615" y="1077" as="targetPoint" />
          </mxGeometry>
        </mxCell>
        <mxCell id="wji47EjEwM8MeWAMWGaV-149" value="" style="endArrow=none;dashed=1;html=1;rounded=0;" edge="1" parent="1">
          <mxGeometry width="50" height="50" relative="1" as="geometry">
            <mxPoint x="1613" y="1077" as="sourcePoint" />
            <mxPoint x="1613" y="688" as="targetPoint" />
          </mxGeometry>
        </mxCell>
        <mxCell id="wji47EjEwM8MeWAMWGaV-150" value="" style="endArrow=none;dashed=1;html=1;rounded=0;" edge="1" parent="1">
          <mxGeometry width="50" height="50" relative="1" as="geometry">
            <mxPoint x="1308" y="688" as="sourcePoint" />
            <mxPoint x="1613" y="688" as="targetPoint" />
          </mxGeometry>
        </mxCell>
        <mxCell id="wji47EjEwM8MeWAMWGaV-151" value="22" style="ellipse;whiteSpace=wrap;html=1;aspect=fixed;strokeColor=#FF0000;" vertex="1" parent="1">
          <mxGeometry x="1104.5" y="693" width="40" height="40" as="geometry" />
        </mxCell>
        <mxCell id="wji47EjEwM8MeWAMWGaV-152" value="13" style="ellipse;whiteSpace=wrap;html=1;aspect=fixed;" vertex="1" parent="1">
          <mxGeometry x="1026" y="773" width="40" height="40" as="geometry" />
        </mxCell>
        <mxCell id="wji47EjEwM8MeWAMWGaV-153" value="29" style="ellipse;whiteSpace=wrap;html=1;aspect=fixed;strokeColor=#000000;" vertex="1" parent="1">
          <mxGeometry x="1184.5" y="773" width="40" height="40" as="geometry" />
        </mxCell>
        <mxCell id="wji47EjEwM8MeWAMWGaV-154" value="1" style="ellipse;whiteSpace=wrap;html=1;aspect=fixed;" vertex="1" parent="1">
          <mxGeometry x="986" y="853" width="40" height="40" as="geometry" />
        </mxCell>
        <mxCell id="wji47EjEwM8MeWAMWGaV-155" value="" style="curved=1;endArrow=classic;html=1;rounded=0;exitX=0;exitY=0.5;exitDx=0;exitDy=0;entryX=0.5;entryY=0;entryDx=0;entryDy=0;" edge="1" parent="1" source="wji47EjEwM8MeWAMWGaV-151" target="wji47EjEwM8MeWAMWGaV-152">
          <mxGeometry width="50" height="50" relative="1" as="geometry">
            <mxPoint x="884.5" y="823" as="sourcePoint" />
            <mxPoint x="934.5" y="773" as="targetPoint" />
            <Array as="points">
              <mxPoint x="1064.5" y="713" />
            </Array>
          </mxGeometry>
        </mxCell>
        <mxCell id="wji47EjEwM8MeWAMWGaV-156" value="" style="curved=1;endArrow=classic;html=1;rounded=0;exitX=0;exitY=1;exitDx=0;exitDy=0;entryX=0.5;entryY=0;entryDx=0;entryDy=0;" edge="1" parent="1" source="wji47EjEwM8MeWAMWGaV-152" target="wji47EjEwM8MeWAMWGaV-154">
          <mxGeometry width="50" height="50" relative="1" as="geometry">
            <mxPoint x="1012.5" y="793" as="sourcePoint" />
            <mxPoint x="954.5" y="853" as="targetPoint" />
            <Array as="points">
              <mxPoint x="1006.5" y="813" />
            </Array>
          </mxGeometry>
        </mxCell>
        <mxCell id="wji47EjEwM8MeWAMWGaV-157" value="" style="curved=1;endArrow=classic;html=1;rounded=0;exitX=1;exitY=0.5;exitDx=0;exitDy=0;entryX=0.5;entryY=0;entryDx=0;entryDy=0;" edge="1" parent="1" source="wji47EjEwM8MeWAMWGaV-151" target="wji47EjEwM8MeWAMWGaV-153">
          <mxGeometry width="50" height="50" relative="1" as="geometry">
            <mxPoint x="1312.5" y="703" as="sourcePoint" />
            <mxPoint x="1254.5" y="763" as="targetPoint" />
            <Array as="points">
              <mxPoint x="1204.5" y="713" />
            </Array>
          </mxGeometry>
        </mxCell>
        <mxCell id="wji47EjEwM8MeWAMWGaV-158" value="7" style="ellipse;whiteSpace=wrap;html=1;aspect=fixed;" vertex="1" parent="1">
          <mxGeometry x="1026" y="931" width="40" height="40" as="geometry" />
        </mxCell>
        <mxCell id="wji47EjEwM8MeWAMWGaV-159" value="" style="curved=1;endArrow=classic;html=1;rounded=0;exitX=1;exitY=1;exitDx=0;exitDy=0;entryX=0.5;entryY=0;entryDx=0;entryDy=0;" edge="1" parent="1" source="wji47EjEwM8MeWAMWGaV-154" target="wji47EjEwM8MeWAMWGaV-158">
          <mxGeometry width="50" height="50" relative="1" as="geometry">
            <mxPoint x="1017" y="891" as="sourcePoint" />
            <mxPoint x="1055" y="923" as="targetPoint" />
            <Array as="points">
              <mxPoint x="1041" y="897" />
            </Array>
          </mxGeometry>
        </mxCell>
        <mxCell id="wji47EjEwM8MeWAMWGaV-160" value="90" style="text;html=1;align=center;verticalAlign=middle;whiteSpace=wrap;rounded=0;" vertex="1" parent="1">
          <mxGeometry x="1138.5" y="720" width="20" height="20" as="geometry" />
        </mxCell>
        <mxCell id="wji47EjEwM8MeWAMWGaV-161" value="60" style="text;html=1;align=center;verticalAlign=middle;whiteSpace=wrap;rounded=0;" vertex="1" parent="1">
          <mxGeometry x="1058.5" y="800" width="20" height="20" as="geometry" />
        </mxCell>
        <mxCell id="wji47EjEwM8MeWAMWGaV-162" value="30" style="text;html=1;align=center;verticalAlign=middle;whiteSpace=wrap;rounded=0;" vertex="1" parent="1">
          <mxGeometry x="1006" y="890" width="20" height="20" as="geometry" />
        </mxCell>
        <mxCell id="wji47EjEwM8MeWAMWGaV-163" value="20" style="text;html=1;align=center;verticalAlign=middle;whiteSpace=wrap;rounded=0;" vertex="1" parent="1">
          <mxGeometry x="1046" y="970" width="20" height="20" as="geometry" />
        </mxCell>
        <mxCell id="wji47EjEwM8MeWAMWGaV-164" value="55" style="text;html=1;align=center;verticalAlign=middle;whiteSpace=wrap;rounded=0;" vertex="1" parent="1">
          <mxGeometry x="1212" y="813" width="20" height="20" as="geometry" />
        </mxCell>
        <mxCell id="wji47EjEwM8MeWAMWGaV-165" value="2" style="ellipse;whiteSpace=wrap;html=1;aspect=fixed;" vertex="1" parent="1">
          <mxGeometry x="1064.5" y="1010" width="40" height="40" as="geometry" />
        </mxCell>
        <mxCell id="wji47EjEwM8MeWAMWGaV-166" value="" style="curved=1;endArrow=classic;html=1;rounded=0;exitX=1;exitY=1;exitDx=0;exitDy=0;entryX=0.5;entryY=0;entryDx=0;entryDy=0;" edge="1" parent="1" source="wji47EjEwM8MeWAMWGaV-158" target="wji47EjEwM8MeWAMWGaV-165">
          <mxGeometry width="50" height="50" relative="1" as="geometry">
            <mxPoint x="1066" y="960" as="sourcePoint" />
            <mxPoint x="1100.5" y="996" as="targetPoint" />
            <Array as="points">
              <mxPoint x="1086.5" y="970" />
            </Array>
          </mxGeometry>
        </mxCell>
        <mxCell id="wji47EjEwM8MeWAMWGaV-167" value="10" style="text;html=1;align=center;verticalAlign=middle;whiteSpace=wrap;rounded=0;" vertex="1" parent="1">
          <mxGeometry x="1098.5" y="1040" width="20" height="20" as="geometry" />
        </mxCell>
        <mxCell id="wji47EjEwM8MeWAMWGaV-168" value="35" style="ellipse;whiteSpace=wrap;html=1;aspect=fixed;" vertex="1" parent="1">
          <mxGeometry x="1224.5" y="850" width="40" height="40" as="geometry" />
        </mxCell>
        <mxCell id="wji47EjEwM8MeWAMWGaV-169" value="50" style="text;html=1;align=center;verticalAlign=middle;whiteSpace=wrap;rounded=0;" vertex="1" parent="1">
          <mxGeometry x="1256" y="880" width="20" height="20" as="geometry" />
        </mxCell>
        <mxCell id="wji47EjEwM8MeWAMWGaV-170" value="" style="curved=1;endArrow=classic;html=1;rounded=0;exitX=1;exitY=1;exitDx=0;exitDy=0;entryX=0.5;entryY=0;entryDx=0;entryDy=0;" edge="1" parent="1" source="wji47EjEwM8MeWAMWGaV-153" target="wji47EjEwM8MeWAMWGaV-168">
          <mxGeometry width="50" height="50" relative="1" as="geometry">
            <mxPoint x="1224.5" y="805" as="sourcePoint" />
            <mxPoint x="1249.5" y="850" as="targetPoint" />
            <Array as="points">
              <mxPoint x="1246" y="813" />
            </Array>
          </mxGeometry>
        </mxCell>
      </root>
    </mxGraphModel>
  </diagram>
</mxfile>
